<!DOCTYPE svg PUBLIC "-//W3C//DTD SVG 1.1//EN" "http://www.w3.org/Graphics/SVG/1.1/DTD/svg11.dtd">
<!-- Uploaded to: SVG Repo, www.svgrepo.com, Transformed by: SVG Repo Mixer Tools -->
<svg fill="#000000" width="800px" height="800px" viewBox="0 0 24 24" id="shipping-left" data-name="Flat Color" xmlns="http://www.w3.org/2000/svg" class="icon flat-color">
<g id="SVGRepo_bgCarrier" stroke-width="0"/>
<g id="SVGRepo_tracerCarrier" stroke-linecap="round" stroke-linejoin="round"/>
<g id="SVGRepo_iconCarrier">
<rect id="primary" x="6" y="4" width="16" height="16" rx="2" style="fill: #ceaf8c;"/>
<path id="secondary" d="M2,17a1,1,0,0,1,1-1H8a1,1,0,0,1,0,2H3A1,1,0,0,1,2,17Zm9-6a1,1,0,0,0,1,1h4a1,1,0,0,0,1-1V4H11ZM3,14H7a1,1,0,0,0,0-2H3a1,1,0,0,0,0,2Z" style="fill: #cc0000;"/>
</g>
</svg>