<!DOCTYPE svg PUBLIC "-//W3C//DTD SVG 1.1//EN" "http://www.w3.org/Graphics/SVG/1.1/DTD/svg11.dtd">
<!-- Uploaded to: SVG Repo, www.svgrepo.com, Transformed by: SVG Repo Mixer Tools -->
<svg fill="#bfbfbf" version="1.1" id="Capa_1" xmlns="http://www.w3.org/2000/svg" xmlns:xlink="http://www.w3.org/1999/xlink" width="800px" height="800px" viewBox="0 0 481.25 481.25" xml:space="preserve" stroke="#bfbfbf">
<g id="SVGRepo_bgCarrier" stroke-width="0"/>
<g id="SVGRepo_tracerCarrier" stroke-linecap="round" stroke-linejoin="round"/>
<g id="SVGRepo_iconCarrier"> <g> <path d="M459.99,9.903c0-5.47-4.434-9.903-9.903-9.903c-10.935,0-16.821,4.676-21.12,8.091c-3.279,2.604-4.774,3.793-8.802,3.793 s-5.524-1.189-8.803-3.793C407.064,4.676,401.177,0,390.243,0s-16.822,4.676-21.121,8.091c-3.278,2.604-4.773,3.793-8.799,3.793 c-4.026,0-5.522-1.189-8.799-3.793C347.223,4.676,341.336,0,330.403,0c-10.935,0-16.821,4.676-21.118,8.091 c-3.278,2.604-4.775,3.793-8.8,3.793c-4.025,0-5.521-1.189-8.8-3.793C287.385,4.676,281.5,0,270.567,0 c-10.937,0-16.821,4.676-21.119,8.091c-3.279,2.604-4.775,3.793-8.801,3.793s-5.52-1.189-8.799-3.793 C227.548,4.676,221.663,0,210.729,0c-10.936,0-16.821,4.676-21.119,8.091c-3.278,2.604-4.775,3.793-8.802,3.793 c-4.024,0-5.519-1.189-8.797-3.793C167.71,4.676,161.824,0,150.887,0c-10.931,0-16.818,4.676-21.116,8.091 c-3.278,2.604-4.775,3.793-8.799,3.793c-4.024,0-5.521-1.189-8.797-3.792C107.876,4.676,101.988,0,91.057,0 C80.122,0,74.235,4.677,69.938,8.092c-3.279,2.604-4.775,3.792-8.799,3.792c-4.024,0-5.519-1.189-8.798-3.793 C48.043,4.676,42.098,0,31.164,0c-5.47,0-9.902,4.434-9.902,9.903L21.208,460.97c0.728,4.751,4.821,8.397,9.776,8.397 c4.024,0,5.52,1.188,8.797,3.792c4.301,3.415,10.426,8.091,21.359,8.091c10.933,0,16.821-4.676,21.118-8.091 c3.278-2.604,4.775-3.792,8.8-3.792c4.022,0,5.52,1.188,8.798,3.792c4.297,3.415,10.185,8.091,21.118,8.091 c10.933,0,16.82-4.676,21.119-8.091c3.278-2.604,4.773-3.792,8.796-3.792c4.029,0,5.524,1.188,8.801,3.792 c4.299,3.415,10.187,8.091,21.118,8.091c10.936,0,16.824-4.676,21.122-8.091c3.278-2.604,4.774-3.792,8.799-3.792 s5.521,1.188,8.799,3.792c4.297,3.415,10.183,8.091,21.119,8.091c10.935,0,16.821-4.676,21.12-8.091 c3.277-2.604,4.773-3.792,8.801-3.792c4.024,0,5.521,1.188,8.799,3.792c4.298,3.415,10.183,8.091,21.119,8.091 c10.934,0,16.82-4.676,21.116-8.091c3.279-2.604,4.775-3.792,8.801-3.792c4.024,0,5.521,1.188,8.802,3.792 c4.296,3.415,10.185,8.091,21.118,8.091c10.935,0,16.82-4.676,21.119-8.091c3.277-2.604,4.774-3.792,8.801-3.792 c4.025,0,5.521,1.188,8.803,3.793c4.297,3.413,10.185,8.089,21.119,8.089c10.933,0,17.002-4.676,21.3-8.089 c3.279-2.605,4.775-3.793,8.802-3.793c4.957,0,9.05-3.646,9.777-8.397L459.99,9.903z M273.624,317.344H74.134 c-8.284,0-15-6.716-15-15c0-8.283,6.716-15,15-15h199.489c8.284,0,15,6.717,15,15C288.624,310.628,281.908,317.344,273.624,317.344 z M273.624,227.344H74.134c-8.284,0-15-6.716-15-15c0-8.284,6.716-15,15-15h199.489c8.284,0,15,6.716,15,15 C288.624,220.628,281.908,227.344,273.624,227.344z M273.624,137.344H74.134c-8.284,0-15-6.716-15-15c0-8.284,6.716-15,15-15 h199.489c8.284,0,15,6.716,15,15C288.624,130.628,281.908,137.344,273.624,137.344z M407.119,317.344h-67.496 c-8.284,0-15-6.716-15-15c0-8.283,6.716-15,15-15h67.496c8.284,0,15,6.717,15,15C422.119,310.628,415.403,317.344,407.119,317.344z M407.119,227.344h-67.496c-8.284,0-15-6.716-15-15c0-8.284,6.716-15,15-15h67.496c8.284,0,15,6.716,15,15 C422.119,220.628,415.403,227.344,407.119,227.344z M407.119,137.344h-67.496c-8.284,0-15-6.716-15-15c0-8.284,6.716-15,15-15 h67.496c8.284,0,15,6.716,15,15C422.119,130.628,415.403,137.344,407.119,137.344z"/> </g> </g>
</svg>